<svg width="20" height="20" viewBox="0 0 20 20" fill="none" xmlns="http://www.w3.org/2000/svg">
<g clip-path="url(#clip0_903_864)">
<g clip-path="url(#clip1_903_864)">
<path fill-rule="evenodd" clip-rule="evenodd" d="M19.9324 17.1231C19.8445 16.7011 19.4313 16.4302 19.0091 16.518C18.587 16.6059 18.3161 17.0193 18.404 17.4413C18.4546 17.6844 18.3943 17.9336 18.2387 18.125C18.1485 18.2359 17.9475 18.4219 17.6143 18.4219H2.3688C2.03557 18.4219 1.83453 18.2359 1.74437 18.125C1.58868 17.9336 1.52842 17.6844 1.57904 17.4413C2.38914 13.5503 5.82119 10.7079 9.7846 10.612C9.85325 10.6147 9.92222 10.616 9.99153 10.616C10.0611 10.616 10.1303 10.6146 10.1992 10.612C12.9911 10.679 15.5716 12.093 17.1343 14.4236C17.3743 14.7817 17.8592 14.8773 18.2173 14.6373C18.5754 14.3972 18.6711 13.9123 18.431 13.5542C17.1501 11.644 15.2902 10.2549 13.1696 9.55695C14.4619 8.58789 15.2995 7.04392 15.2995 5.30801C15.2995 2.38119 12.9184 0 9.99154 0C7.06468 0 4.68353 2.38119 4.68353 5.30801C4.68353 7.04498 5.5222 8.58976 6.81583 9.55875C5.63058 9.94897 4.51844 10.5562 3.54504 11.3568C1.76014 12.825 0.519115 14.8728 0.0506453 17.1231C-0.0961847 17.8282 0.0797253 18.5525 0.533165 19.11C0.984385 19.6649 1.65347 19.9831 2.3688 19.9831H17.6142C18.3296 19.9831 18.9987 19.6649 19.4498 19.11C19.9034 18.5525 20.0792 17.8282 19.9324 17.1231ZM6.24469 5.30801C6.24469 3.24198 7.92549 1.56118 9.99152 1.56118C12.0575 1.56118 13.7383 3.24198 13.7383 5.30801C13.7383 7.31042 12.1594 8.95098 10.1812 9.05008C10.118 9.04891 10.0548 9.04832 9.99152 9.04832C9.92852 9.04832 9.86553 9.04895 9.80262 9.05012C7.82402 8.95141 6.24469 7.31069 6.24469 5.30801Z" fill="white"/>
</g>
</g>
<defs>
<clipPath id="clip0_903_864">
<rect width="19.9831" height="19.9831" fill="white"/>
</clipPath>
<clipPath id="clip1_903_864">
<rect width="19.9831" height="19.9831" fill="white"/>
</clipPath>
</defs>
</svg>
